<svg xmlns="http://www.w3.org/2000/svg" viewBox="0 0 149.3 51.7" fill="#fff" xmlns:v="https://vecta.io/nano"><path d="M0 51.7V0h149.3v51.7H0zM97.2 2.4H2.4v47h94.8v-47zm26 13.1c-4.9 0-6.6 3-6.9 5.3h4c.2-1 .7-2.1 2.7-2.1 1.7 0 2.5.9 2.5 2.2 0 1.6-.8 2.3-2.7 2.3h0-1.5v3.3h1.8c2.3 0 3.2 1.1 3.2 2.9 0 1.7-1 3-2.9 3-2 0-2.9-1.1-3.2-2.5h0-4.1c.2 2.6 2 5.7 7.2 5.7 5.6 0 7.3-3.3 7.3-6.1 0-3-1.9-4.2-3.2-4.7h0v-.1c1.1-.5 2.4-1.6 2.4-4-.1-2.7-2.1-5.2-6.6-5.2zm-94.3 9.7c1.7 1 2.6 2.6 2.6 4.7 0 1.8-.6 3.3-1.9 4.4s-3 1.7-5.1 1.7h-8.8V15.1H24c2.1 0 3.7.5 5 1.6 1.2 1.1 1.9 2.5 1.9 4.3s-.7 3.2-2 4.2zm-5.1-5.3h-2.7v3.3h2.7c.5 0 .9-.1 1.2-.4s.5-.7.5-1.2-.2-.9-.5-1.2-.7-.5-1.2-.5zm.6 11.3c.5 0 1-.2 1.3-.5s.5-.7.5-1.3c0-.5-.2-1-.5-1.3s-.8-.5-1.3-.5h-3.3v3.5h3.3zm19.9-10.1h4.9V36h-4.9v-1.4c-1 1.2-2.4 1.8-4.2 1.8-2 0-3.6-.7-5-2.2-1.3-1.5-2-3.4-2-5.6s.7-4.1 2-5.6 3-2.2 5-2.2c1.8 0 3.2.6 4.2 1.8v-1.5zm-5.4 9.8c.6.6 1.3.9 2.3.9.9 0 1.7-.3 2.3-.9s.9-1.4.9-2.4-.3-1.8-.9-2.4-1.3-.9-2.3-.9c-.9 0-1.7.3-2.3.9s-.9 1.4-.9 2.4.3 1.8.9 2.4zm22.2-10.2c1.6 0 2.9.6 3.9 1.7s1.5 2.7 1.5 4.7V36h-4.9v-8.3c0-.8-.2-1.4-.6-1.8s-.9-.6-1.6-.6c-.8 0-1.4.2-1.8.7s-.6 1.1-.6 2v8h-4.9V21.1H57v1.5c.9-1.3 2.3-1.9 4.1-1.9zM84 36h-5.5l-4.2-6.3V36h-4.9V15.1h4.9v12.2l3.8-6.2h5.7l-5 7.4L84 36z"/></svg>