<?xml version="1.0" encoding="UTF-8"?>
<svg width="100px" height="31px" viewBox="0 0 100 31" version="1.1" xmlns="http://www.w3.org/2000/svg" xmlns:xlink="http://www.w3.org/1999/xlink">
    <title>p3-white</title>
    <g id="Symbols" stroke="none" stroke-width="1" fill="none" fill-rule="evenodd">
        <g id="timeline/" transform="translate(-31.000000, -21.000000)" fill="#FFFFFF" fill-rule="nonzero">
            <g id="p3-white" transform="translate(31.000000, 21.000000)">
                <path d="M-3.19744231e-13,30.9666667 L-3.19744231e-13,0 L100,0 L100,30.9666667 L-3.19744231e-13,30.9666667 Z M68.8087248,1.41666667 L1.4261745,1.41666667 L1.4261745,29.55 L68.8087248,29.55 L68.8087248,1.41666667 Z M55.5369128,12.4666667 C58.0704698,12.4666667 60.1006711,14.4333333 60.1006711,16.9833333 C60.1006711,19.5333333 58.0704698,21.5 55.5369128,21.5 C52.9865772,21.5 50.9731544,19.5333333 50.9731544,16.9833333 C50.9731544,14.4333333 53.0033557,12.4666667 55.5369128,12.4666667 Z M22.114094,12.4666667 C24.647651,12.4666667 26.6778523,14.4333333 26.6778523,16.9833333 C26.6778523,19.5333333 24.647651,21.5 22.114094,21.5 C19.5805369,21.5 17.5503356,19.5333333 17.5503356,16.9833333 C17.5503356,14.4333333 19.5805369,12.4666667 22.114094,12.4666667 Z M44.7651007,12.45 C45.9228188,12.45 46.761745,12.85 47.3322148,13.5 L47.3322148,13.5 L47.3322148,12.7 L49.9161074,12.7 L49.9161074,21.25 L47.3322148,21.25 L47.3322148,20.45 C46.761745,21.1 45.9228188,21.5 44.7651007,21.5 C42.5167785,21.5 40.6375839,19.5166667 40.6375839,16.9666667 C40.6375839,14.4166667 42.5,12.45 44.7651007,12.45 Z M37.9194631,10.3 L37.9194631,12.7 L39.6812081,12.7 L39.6812081,15.1666667 L37.9026846,15.1666667 L37.9026846,18.2 C37.9026846,18.9333333 38.5402685,19 39.6812081,18.9333333 L39.6812081,18.9333333 L39.6812081,21.2666667 C36.3087248,21.6166667 35.3187919,20.6 35.3187919,18.2 L35.3187919,18.2 L35.3355705,18.2 L35.3355705,15.1666667 L33.9597315,15.1666667 L33.9597315,12.7 L35.3355705,12.7 L35.3355705,11.0666667 L37.9194631,10.3 Z M84.3959732,9.28333333 C81.4597315,9.28333333 80.4530201,11.05 80.2852349,12.4833333 L80.2852349,12.4833333 L82.7013423,12.4833333 C82.8187919,11.9 83.1040268,11.25 84.295302,11.25 C85.3187919,11.25 85.7885906,11.7833333 85.7885906,12.5833333 C85.7885906,13.55 85.3187919,13.9333333 84.1442953,13.9333333 L84.1442953,13.9333333 L83.2214765,13.9333333 L83.2214765,15.8833333 L84.2785235,15.8833333 C85.6375839,15.8833333 86.1912752,16.5333333 86.1912752,17.6166667 C86.1912752,18.65 85.6040268,19.4 84.4295302,19.4 C83.2214765,19.4 82.6677852,18.7166667 82.5167785,17.9166667 L82.5167785,17.9166667 L80.033557,17.9166667 C80.1677852,19.45 81.2248322,21.3333333 84.3624161,21.3333333 C87.7348993,21.3333333 88.7583893,19.3333333 88.7583893,17.6666667 C88.7583893,15.8666667 87.6174497,15.15 86.8624161,14.8666667 L86.8624161,14.8666667 L86.8624161,14.8166667 C87.5,14.5166667 88.3053691,13.85 88.3053691,12.45 C88.3053691,10.8 87.114094,9.28333333 84.3959732,9.28333333 Z M32.885906,12.5333333 L32.885906,15.45 C31.8120805,15.2833333 30.3020134,15.7 30.3020134,17.4 L30.3020134,17.4 L30.3020134,21.2833333 L27.7181208,21.2833333 L27.7181208,12.7166667 L30.3020134,12.7166667 L30.3020134,14.2333333 C30.6375839,13.0833333 31.795302,12.5333333 32.885906,12.5333333 L32.885906,12.5333333 Z M13.4060403,9.26666667 C15.7885906,9.26666667 17.6342282,11.1 17.6342282,13.3833333 C17.6342282,15.6666667 15.7885906,17.5 13.4060403,17.5 L13.4060403,17.5 L11.5939597,17.5 L11.5939597,21.25 L8.84228188,21.25 L8.84228188,9.26666667 Z M45.2852349,14.9 C44.0939597,14.9 43.238255,15.7 43.238255,16.9833333 C43.238255,18.2666667 44.0939597,19.0666667 45.2852349,19.0666667 C46.4765101,19.0666667 47.3322148,18.2666667 47.3322148,16.9833333 C47.3322148,15.7 46.4765101,14.9 45.2852349,14.9 Z M22.114094,14.9666667 C20.9899329,14.9666667 20.1342282,15.7666667 20.1342282,16.9833333 C20.1342282,18.2 20.9899329,19 22.114094,19 C23.238255,19 24.0939597,18.2 24.0939597,16.9833333 C24.0939597,15.7666667 23.238255,14.9666667 22.114094,14.9666667 Z M55.5369128,14.9666667 C54.4127517,14.9666667 53.5402685,15.7666667 53.557047,16.9833333 C53.557047,18.2 54.4127517,19 55.5369128,19 C56.6610738,19 57.5167785,18.2 57.5167785,16.9833333 C57.5167785,15.7666667 56.6610738,14.9666667 55.5369128,14.9666667 Z M13.4060403,11.85 L11.5939597,11.85 L11.5939597,14.9166667 L13.4060403,14.9166667 C14.2449664,14.9166667 14.8657718,14.25 14.8657718,13.3833333 C14.8657718,12.5166667 14.2449664,11.85 13.4060403,11.85 L13.4060403,11.85 Z M42.3825503,11.8 C42.3825503,8.86666667 44.1778523,8.55 45.7550336,9.51666667 C46.3422819,9.86666667 46.4932886,9.78333333 46.4932886,9.1 L46.4932886,9.1 L48.557047,9.1 C48.557047,12.0333333 46.761745,12.35 45.1845638,11.3833333 C44.5973154,11.0166667 44.4463087,11.1 44.4463087,11.8 L44.4463087,11.8 Z" id="Combined-Shape"></path>
            </g>
        </g>
    </g>
</svg>